<?xml version="1.0" encoding="UTF-8" standalone="no"?>
<!-- Generator: Adobe Illustrator 22.1.0, SVG Export Plug-In . SVG Version: 6.00 Build 0)  -->

<svg
   version="1.1"
   x="0px"
   y="0px"
   viewBox="0 0 619.59406 619.59403"
   xml:space="preserve"
   id="svg10"
   sodipodi:docname="RStudio_logo_flat.svg"
   width="619.59406"
   height="619.59406"
   inkscape:version="1.4.2 (ebf0e940d0, 2025-05-08)"
   xmlns:inkscape="http://www.inkscape.org/namespaces/inkscape"
   xmlns:sodipodi="http://sodipodi.sourceforge.net/DTD/sodipodi-0.dtd"
   xmlns="http://www.w3.org/2000/svg"
   xmlns:svg="http://www.w3.org/2000/svg"><defs
   id="defs10" /><sodipodi:namedview
   id="namedview10"
   pagecolor="#ffffff"
   bordercolor="#000000"
   borderopacity="0.25"
   inkscape:showpageshadow="2"
   inkscape:pageopacity="0.0"
   inkscape:pagecheckerboard="0"
   inkscape:deskcolor="#d1d1d1"
   showguides="true"
   inkscape:zoom="0.96239001"
   inkscape:cx="327.82967"
   inkscape:cy="251.97685"
   inkscape:window-width="1920"
   inkscape:window-height="1128"
   inkscape:window-x="0"
   inkscape:window-y="0"
   inkscape:window-maximized="1"
   inkscape:current-layer="g10"><sodipodi:guide
     position="309.62815,176.18243"
     orientation="0,-1"
     id="guide11"
     inkscape:locked="false" /><sodipodi:guide
     position="449.41916,191.13351"
     orientation="1,0"
     id="guide12"
     inkscape:locked="false" /><sodipodi:guide
     position="200.61915,191.13351"
     orientation="1,0"
     id="guide13"
     inkscape:locked="false" /><sodipodi:guide
     position="309.62815,456.18228"
     orientation="0,-1"
     id="guide14"
     inkscape:locked="false" /></sodipodi:namedview>
<style
   type="text/css"
   id="style1">
	.st0{fill:#75AADB;}
	.st1{fill:#4D4D4D;}
	.st2{fill:#FFFFFF;}
	.st3{fill:url(#SVGID_1_);}
	.st4{fill:url(#SVGID_2_);}
	.st5{fill:url(#SVGID_3_);}
	.st6{fill:url(#SVGID_4_);}
	.st7{fill:url(#SVGID_5_);}
	.st8{fill:url(#SVGID_6_);}
	.st9{fill:url(#SVGID_7_);}
	.st10{fill:url(#SVGID_8_);}
	.st11{fill:url(#SVGID_9_);}
	.st12{fill:url(#SVGID_10_);}
	.st13{opacity:0.18;fill:url(#SVGID_11_);}
	.st14{opacity:0.3;}
</style>
<g
   id="Gray_Logo"
   transform="translate(-8.8808475,-3.1334903)">
</g>
<g
   id="Black_Letters"
   transform="translate(-8.8808475,-3.1334903)">
</g>
<g
   id="Blue_Gradient_Letters"
   transform="translate(-8.8808475,-3.1334903)">
	<g
   id="g10"><circle
   transform="matrix(0.7071,-0.7071,0.7071,0.7071,-127.9265,317.0317)"
   class="st0"
   cx="318.70001"
   cy="312.89999"
   id="ellipse1"
   style="fill:#1d70b8"
   r="309.79999" />
		
			
		
		<g
   id="g7">
			
		</g>
		
	<path
   style="font-weight:500;font-size:337.82px;line-height:0.9;font-family:'Keep Calm';-inkscape-font-specification:'Keep Calm Medium';text-align:center;text-anchor:middle;fill:#ffffff;stroke-width:23.9354"
   d="m 461.04209,313.02004 q 0,23.98068 -7.7684,45.59708 -7.43063,21.27863 -21.61638,39.1797 l 27.02048,26.68275 -31.07356,31.07356 -27.696,-28.03376 q -17.22557,11.82146 -37.82869,18.57658 -20.60313,6.75513 -43.57054,6.75513 -29.38479,0 -55.39202,-10.8082 -25.66946,-11.14595 -45.25932,-30.06029 -19.25211,-19.2521 -30.39807,-44.58382 -11.14595,-25.33171 -11.14595,-54.37873 0,-29.04703 11.14595,-54.37875 11.14596,-25.66946 30.39807,-44.58382 19.58986,-19.2521 45.25932,-30.0603 26.00723,-11.14595 55.39202,-11.14595 29.38478,0 55.39201,11.14595 26.00722,10.8082 45.25932,30.0603 19.58986,18.91436 30.73581,44.58382 11.14595,25.33172 11.14595,54.37875 z m -51.00118,0 q 0,-18.5766 -7.43063,-35.12665 -7.09289,-16.55005 -19.58986,-29.04703 -12.15922,-12.49697 -29.04703,-19.58986 -16.55005,-7.43063 -35.46439,-7.43063 -18.91435,0 -35.4644,7.43063 -16.55005,7.09289 -29.04703,19.58986 -12.49698,12.49698 -19.58985,29.04703 -7.0929,16.55005 -7.0929,35.12665 0,18.57658 7.0929,35.12663 7.09287,16.55005 19.58985,29.04703 12.49698,12.15922 29.04703,19.58986 16.55005,7.09288 35.4644,7.09288 12.83473,0 24.31843,-3.37757 11.82147,-3.37755 22.29191,-9.45717 l -25.33171,-24.6562 31.07357,-31.07356 24.99396,25.66947 q 14.18575,-21.95415 14.18575,-47.96137 z"
   id="text13"
   aria-label="Q" /></g>
</g>
<g
   id="White_Letters"
   transform="translate(-8.8808475,-3.1334903)">
</g>
<g
   id="R_Ball"
   transform="translate(-8.8808475,-3.1334903)">
</g>
</svg>
